<svg width="18" height="18" viewBox="0 0 18 18" fill="none" xmlns="http://www.w3.org/2000/svg">
<path d="M8.01963 0.874629C8.23491 -0.195813 9.76509 -0.195811 9.98037 0.874631L10.2646 2.28787C10.4183 3.05215 11.3486 3.35443 11.9222 2.82646L12.9828 1.85019C13.7862 1.11072 15.0241 2.01014 14.5691 3.00268L13.9684 4.31309C13.6435 5.02175 14.2185 5.81312 14.9928 5.72314L16.4247 5.55674C17.5093 5.4307 17.9822 6.88598 17.0306 7.42151L15.7744 8.12854C15.095 8.5109 15.095 9.4891 15.7744 9.87146L17.0306 10.5785C17.9822 11.114 17.5093 12.5693 16.4247 12.4433L14.9928 12.2769C14.2185 12.1869 13.6435 12.9783 13.9684 13.6869L14.5691 14.9973C15.0241 15.9899 13.7862 16.8893 12.9828 16.1498L11.9222 15.1735C11.3486 14.6456 10.4183 14.9478 10.2646 15.7121L9.98037 17.1254C9.76509 18.1958 8.23491 18.1958 8.01963 17.1254L7.7354 15.7121C7.58169 14.9478 6.65138 14.6456 6.07779 15.1735L5.01716 16.1498C4.2138 16.8893 2.97587 15.9899 3.43089 14.9973L4.03163 13.6869C4.35651 12.9782 3.78154 12.1869 3.00717 12.2769L1.57526 12.4433C0.490686 12.5693 0.0178383 11.114 0.969362 10.5785L2.22561 9.87146C2.90498 9.4891 2.90498 8.5109 2.22561 8.12854L0.969361 7.42151C0.0178364 6.88598 0.490688 5.4307 1.57526 5.55674L3.00717 5.72314C3.78154 5.81312 4.35651 5.02175 4.03163 4.31309L3.43089 3.00268C2.97587 2.01014 4.21381 1.11073 5.01716 1.85019L6.07779 2.82647C6.65138 3.35443 7.58169 3.05215 7.7354 2.28787L8.01963 0.874629Z" fill="#00BFFC"/>
</svg>
