<svg width="20" height="20" viewBox="0 0 20 20" fill="none" xmlns="http://www.w3.org/2000/svg">
<path d="M9.1239 0.592015C9.50389 -0.0984821 10.4961 -0.0984824 10.8761 0.592015L13.7648 5.84123C13.8561 6.00723 13.9928 6.14386 14.1588 6.2352L19.408 9.1239C20.0985 9.50389 20.0985 10.4961 19.408 10.8761L14.1588 13.7648C13.9928 13.8561 13.8561 13.9928 13.7648 14.1588L10.8761 19.408C10.4961 20.0985 9.50389 20.0985 9.1239 19.408L6.2352 14.1588C6.14386 13.9928 6.00723 13.8561 5.84123 13.7648L0.592015 10.8761C-0.0984821 10.4961 -0.0984824 9.50389 0.592015 9.1239L5.84123 6.2352C6.00723 6.14386 6.14386 6.00723 6.2352 5.84123L9.1239 0.592015Z" fill="#FCB500"/>
</svg>
